{
  "source": "C:\\Users\\Peter\\Desktop\\stuff\\MIUN\\quantitative_research\\video_compression\\videos\\BVI-HD\\BVI-HD_CDVL_videos\\ORIG\\BubblesPitcher_1920x1080_60fps.mp4",
  "output": "C:\\Users\\Peter\\Desktop\\stuff\\MIUN\\quantitative_research\\video_compression\\compressed_videos\\BVI-HD\\vp9\\8\\BubblesPitcher_1920x1080_60fps_vp9.webm",
  "codec": "vp9",
  "ok": "Input #0, mov,mp4,m4a,3gp,3g2,mj2, from 'C:\\Users\\Peter\\Desktop\\stuff\\MIUN\\quantitative_research\\video_compression\\videos\\BVI-HD\\BVI-HD_CDVL_videos\\ORIG\\BubblesPitcher_1920x1080_60fps.mp4':\n  Metadata:\n    major_brand     : isom\n    minor_version   : 512\n    compatible_brands: isomiso2avc1mp41\n    encoder         : Lavf54.28.101\n  Duration: 00:00:05.00, start: 0.000000, bitrate: 188849 kb/s\n  Stream #0:0[0x1](und): Video: h264 (High 4:4:4 Predictive) (avc1 / 0x31637661), yuv420p(progressive), 1920x1080, 188844 kb/s, 60 fps, 60 tbr, 60 tbn (default)\n    Metadata:\n      handler_name    : VideoHandler\n      vendor_id       : [0][0][0][0]\n[out#0/webm @ 00000273b41ecc80] Codec AVOption b:a (set bitrate (in bits/s)) has not been used for any stream. The most likely reason is either wrong type (e.g. a video option with no video streams) or that it is a private option of some decoder which was not actually used for any stream.\nStream mapping:\n  Stream #0:0 -> #0:0 (h264 (native) -> vp9 (libvpx-vp9))\nPress [q] to stop, [?] for help\n[libvpx-vp9 @ 00000273b5d15480] v1.15.2-100-g40561f514\nOutput #0, webm, to 'C:\\Users\\Peter\\Desktop\\stuff\\MIUN\\quantitative_research\\video_compression\\compressed_videos\\BVI-HD\\vp9\\8\\BubblesPitcher_1920x1080_60fps_vp9.webm':\n  Metadata:\n    major_brand     : isom\n    minor_version   : 512\n    compatible_brands: isomiso2avc1mp41\n    encoder         : Lavf62.3.100\n  Stream #0:0(und): Video: vp9, yuv420p(tv, progressive), 1920x1080, q=2-31, 8000 kb/s, 60 fps, 1k tbn (default)\n    Metadata:\n      encoder         : Lavc62.11.100 libvpx-vp9\n      handler_name    : VideoHandler\n      vendor_id       : [0][0][0][0]\n    Side data:\n      cpb: bitrate max/min/avg: 0/0/0 buffer size: 8000000 vbv_delay: N/A\nframe=    4 fps=0.0 q=27.0 size=       1KiB time=00:00:00.06 bitrate=  76.0kbits/s speed=0.13x elapsed=0:00:00.51    \nframe=   11 fps= 11 q=15.0 size=       1KiB time=00:00:00.18 bitrate=  27.6kbits/s speed=0.175x elapsed=0:00:01.04    \nframe=   16 fps= 10 q=18.0 size=       1KiB time=00:00:00.26 bitrate=  19.0kbits/s speed=0.169x elapsed=0:00:01.57    \nframe=   22 fps= 10 q=19.0 size=       1KiB time=00:00:00.36 bitrate=  13.8kbits/s speed=0.174x elapsed=0:00:02.10    \nframe=   27 fps= 10 q=21.0 size=       1KiB time=00:00:00.45 bitrate=  11.3kbits/s speed=0.172x elapsed=0:00:02.60    \nframe=   33 fps= 11 q=23.0 size=       1KiB time=00:00:00.55 bitrate=   9.2kbits/s speed=0.175x elapsed=0:00:03.13    \nframe=   38 fps= 10 q=23.0 size=       1KiB time=00:00:00.63 bitrate=   8.0kbits/s speed=0.173x elapsed=0:00:03.65    \nframe=   43 fps= 10 q=11.0 size=       1KiB time=00:00:00.71 bitrate=   7.1kbits/s speed=0.171x elapsed=0:00:04.18    \nframe=   48 fps= 10 q=23.0 size=       1KiB time=00:00:00.80 bitrate=   6.3kbits/s speed=0.17x elapsed=0:00:04.71    \nframe=   54 fps= 10 q=24.0 size=       1KiB time=00:00:00.90 bitrate=   5.6kbits/s speed=0.172x elapsed=0:00:05.21    \nframe=   60 fps= 10 q=26.0 size=       1KiB time=00:00:01.00 bitrate=   5.1kbits/s speed=0.174x elapsed=0:00:05.75    \nframe=   65 fps= 10 q=25.0 size=       1KiB time=00:00:01.08 bitrate=   4.7kbits/s speed=0.172x elapsed=0:00:06.28    \nframe=   70 fps= 10 q=25.0 size=       1KiB time=00:00:01.16 bitrate=   4.3kbits/s speed=0.172x elapsed=0:00:06.79    \nframe=   75 fps= 10 q=23.0 size=       1KiB time=00:00:01.25 bitrate=   4.1kbits/s speed=0.171x elapsed=0:00:07.31    \nframe=   81 fps= 10 q=24.0 size=       1KiB time=00:00:01.35 bitrate=   3.8kbits/s speed=0.172x elapsed=0:00:07.84    \nframe=   85 fps= 10 q=11.0 size=       1KiB time=00:00:01.41 bitrate=   3.6kbits/s speed=0.169x elapsed=0:00:08.36    \nframe=   91 fps= 10 q=24.0 size=       1KiB time=00:00:01.51 bitrate=   3.3kbits/s speed=0.171x elapsed=0:00:08.87    \nframe=   96 fps= 10 q=24.0 size=       1KiB time=00:00:01.60 bitrate=   3.2kbits/s speed=0.17x elapsed=0:00:09.40    \nframe=  102 fps= 10 q=24.0 size=       1KiB time=00:00:01.70 bitrate=   3.0kbits/s speed=0.171x elapsed=0:00:09.94    \nframe=  108 fps= 10 q=24.0 size=       1KiB time=00:00:01.80 bitrate=   2.8kbits/s speed=0.172x elapsed=0:00:10.47    \nframe=  113 fps= 10 q=24.0 size=       1KiB time=00:00:01.88 bitrate=   2.7kbits/s speed=0.171x elapsed=0:00:11.00    \nframe=  118 fps= 10 q=23.0 size=       1KiB time=00:00:01.96 bitrate=   2.6kbits/s speed=0.171x elapsed=0:00:11.52    \nframe=  124 fps= 10 q=12.0 size=       1KiB time=00:00:02.06 bitrate=   2.5kbits/s speed=0.172x elapsed=0:00:12.04    \nframe=  130 fps= 10 q=28.0 size=    1536KiB time=00:00:02.16 bitrate=5807.5kbits/s speed=0.172x elapsed=0:00:12.56    \nframe=  135 fps= 10 q=15.0 size=    1536KiB time=00:00:02.25 bitrate=5592.4kbits/s speed=0.172x elapsed=0:00:13.09    \nframe=  140 fps= 10 q=32.0 size=    1536KiB time=00:00:02.33 bitrate=5392.7kbits/s speed=0.171x elapsed=0:00:13.61    \nframe=  145 fps= 10 q=35.0 size=    1536KiB time=00:00:02.41 bitrate=5206.7kbits/s speed=0.171x elapsed=0:00:14.12    \nframe=  149 fps= 10 q=36.0 size=    1536KiB time=00:00:02.48 bitrate=5066.9kbits/s speed=0.17x elapsed=0:00:14.64    \nframe=  153 fps= 10 q=37.0 size=    1536KiB time=00:00:02.55 bitrate=4934.5kbits/s speed=0.168x elapsed=0:00:15.16    \nframe=  157 fps= 10 q=38.0 size=    1536KiB time=00:00:02.61 bitrate=4808.8kbits/s speed=0.167x elapsed=0:00:15.69    \nframe=  161 fps=9.9 q=39.0 size=    1536KiB time=00:00:02.68 bitrate=4689.3kbits/s speed=0.165x elapsed=0:00:16.21    \nframe=  165 fps=9.9 q=39.0 size=    1536KiB time=00:00:02.75 bitrate=4575.6kbits/s speed=0.164x elapsed=0:00:16.73    \nframe=  168 fps=9.7 q=40.0 size=    1536KiB time=00:00:02.80 bitrate=4493.9kbits/s speed=0.162x elapsed=0:00:17.26    \nframe=  171 fps=9.6 q=44.0 size=    1536KiB time=00:00:02.85 bitrate=4415.1kbits/s speed=0.16x elapsed=0:00:17.77    \nframe=  175 fps=9.6 q=46.0 size=    1536KiB time=00:00:02.91 bitrate=4314.1kbits/s speed=0.159x elapsed=0:00:18.30    \nframe=  178 fps=9.4 q=47.0 size=    1536KiB time=00:00:02.96 bitrate=4241.4kbits/s speed=0.157x elapsed=0:00:18.85    \nframe=  181 fps=9.3 q=48.0 size=    1536KiB time=00:00:03.01 bitrate=4171.1kbits/s speed=0.156x elapsed=0:00:19.36    \nframe=  184 fps=9.2 q=48.0 size=    1536KiB time=00:00:03.06 bitrate=4103.1kbits/s speed=0.154x elapsed=0:00:19.91    \nframe=  187 fps=9.2 q=49.0 size=    1536KiB time=00:00:03.11 bitrate=4037.3kbits/s speed=0.153x elapsed=0:00:20.43    \nframe=  190 fps=9.1 q=49.0 size=    1536KiB time=00:00:03.16 bitrate=3973.6kbits/s speed=0.151x elapsed=0:00:20.95    \nframe=  193 fps=9.0 q=49.0 size=    1536KiB time=00:00:03.21 bitrate=3911.8kbits/s speed=0.15x elapsed=0:00:21.47    \nframe=  196 fps=8.9 q=50.0 size=    1536KiB time=00:00:03.26 bitrate=3851.9kbits/s speed=0.149x elapsed=0:00:21.98    \nframe=  199 fps=8.8 q=50.0 size=    1536KiB time=00:00:03.31 bitrate=3793.8kbits/s speed=0.147x elapsed=0:00:22.49    \nframe=  202 fps=8.8 q=50.0 size=    1536KiB time=00:00:03.36 bitrate=3737.5kbits/s speed=0.146x elapsed=0:00:23.03    \nframe=  205 fps=8.7 q=51.0 size=    1536KiB time=00:00:03.41 bitrate=3682.8kbits/s speed=0.145x elapsed=0:00:23.55    \nframe=  208 fps=8.6 q=51.0 size=    1536KiB time=00:00:03.45 bitrate=3647.2kbits/s speed=0.143x elapsed=0:00:24.07    \nframe=  210 fps=8.5 q=51.0 size=    1536KiB time=00:00:03.50 bitrate=3595.1kbits/s speed=0.142x elapsed=0:00:24.59    \nframe=  213 fps=8.5 q=51.0 size=    1536KiB time=00:00:03.55 bitrate=3544.5kbits/s speed=0.141x elapsed=0:00:25.11    \nframe=  216 fps=8.4 q=51.0 size=    1536KiB time=00:00:03.60 bitrate=3495.3kbits/s speed=0.14x elapsed=0:00:25.64    \nframe=  219 fps=8.4 q=52.0 size=    1536KiB time=00:00:03.65 bitrate=3447.4kbits/s speed=0.139x elapsed=0:00:26.18    \nframe=  222 fps=8.3 q=52.0 size=    1536KiB time=00:00:03.70 bitrate=3400.8kbits/s speed=0.139x elapsed=0:00:26.71    \nframe=  225 fps=8.3 q=52.0 size=    1536KiB time=00:00:03.75 bitrate=3355.4kbits/s speed=0.138x elapsed=0:00:27.25    \nframe=  228 fps=8.2 q=52.0 size=    1536KiB time=00:00:03.80 bitrate=3311.3kbits/s speed=0.137x elapsed=0:00:27.78    \nframe=  231 fps=8.2 q=52.0 size=    1536KiB time=00:00:03.85 bitrate=3268.3kbits/s speed=0.136x elapsed=0:00:28.30    \nframe=  233 fps=8.1 q=52.0 size=    1536KiB time=00:00:03.88 bitrate=3240.2kbits/s speed=0.135x elapsed=0:00:28.83    \nframe=  236 fps=8.0 q=38.0 size=    1536KiB time=00:00:03.93 bitrate=3199.0kbits/s speed=0.134x elapsed=0:00:29.34    \nframe=  239 fps=8.0 q=52.0 size=    1536KiB time=00:00:03.98 bitrate=3158.9kbits/s speed=0.133x elapsed=0:00:29.86    \nframe=  242 fps=8.0 q=38.0 size=    1536KiB time=00:00:04.03 bitrate=3119.7kbits/s speed=0.133x elapsed=0:00:30.37    \nframe=  245 fps=7.9 q=51.0 size=    1536KiB time=00:00:04.08 bitrate=3081.5kbits/s speed=0.132x elapsed=0:00:30.89    \nframe=  247 fps=7.9 q=51.0 size=    1536KiB time=00:00:04.11 bitrate=3056.6kbits/s speed=0.131x elapsed=0:00:31.41    \nframe=  250 fps=7.8 q=49.0 size=    1536KiB time=00:00:04.16 bitrate=3019.9kbits/s speed=0.131x elapsed=0:00:31.92    \nframe=  253 fps=7.8 q=49.0 size=    1536KiB time=00:00:04.21 bitrate=2984.1kbits/s speed=0.13x elapsed=0:00:32.44    \nframe=  256 fps=7.8 q=49.0 size=    1536KiB time=00:00:04.26 bitrate=2949.1kbits/s speed=0.129x elapsed=0:00:32.96    \nframe=  259 fps=7.7 q=51.0 size=    3328KiB time=00:00:04.31 bitrate=6315.7kbits/s speed=0.129x elapsed=0:00:33.50    \nframe=  262 fps=7.7 q=52.0 size=    3328KiB time=00:00:04.36 bitrate=6243.4kbits/s speed=0.128x elapsed=0:00:34.02    \nframe=  265 fps=7.7 q=51.0 size=    3328KiB time=00:00:04.41 bitrate=6172.7kbits/s speed=0.128x elapsed=0:00:34.53    \nframe=  268 fps=7.6 q=51.0 size=    3328KiB time=00:00:04.46 bitrate=6103.7kbits/s speed=0.127x elapsed=0:00:35.06    \nframe=  271 fps=7.6 q=51.0 size=    3328KiB time=00:00:04.51 bitrate=6036.1kbits/s speed=0.127x elapsed=0:00:35.57    \nframe=  274 fps=7.6 q=51.0 size=    3328KiB time=00:00:04.56 bitrate=5970.0kbits/s speed=0.126x elapsed=0:00:36.12    \nframe=  276 fps=7.5 q=51.0 size=    3328KiB time=00:00:04.60 bitrate=5926.7kbits/s speed=0.126x elapsed=0:00:36.64    \nframe=  276 fps=7.4 q=51.0 size=    3328KiB time=00:00:04.60 bitrate=5926.7kbits/s speed=0.124x elapsed=0:00:37.16    \nframe=  276 fps=7.3 q=51.0 size=    3328KiB time=00:00:04.60 bitrate=5926.7kbits/s speed=0.122x elapsed=0:00:37.67    \nframe=  276 fps=7.2 q=51.0 size=    3328KiB time=00:00:04.60 bitrate=5926.7kbits/s speed=0.12x elapsed=0:00:38.18    \nframe=  276 fps=7.1 q=51.0 size=    3328KiB time=00:00:04.60 bitrate=5926.7kbits/s speed=0.119x elapsed=0:00:38.71    \nframe=  276 fps=7.0 q=51.0 size=    3328KiB time=00:00:04.60 bitrate=5926.7kbits/s speed=0.117x elapsed=0:00:39.21    \nframe=  276 fps=6.9 q=51.0 size=    3328KiB time=00:00:04.60 bitrate=5926.7kbits/s speed=0.116x elapsed=0:00:39.74    \nframe=  276 fps=6.9 q=51.0 size=    3328KiB time=00:00:04.60 bitrate=5926.7kbits/s speed=0.114x elapsed=0:00:40.25    \nframe=  276 fps=6.8 q=51.0 size=    3328KiB time=00:00:04.60 bitrate=5926.7kbits/s speed=0.113x elapsed=0:00:40.76    \n[out#0/webm @ 00000273b41ecc80] video:4093KiB audio:0KiB subtitle:0KiB other streams:0KiB global headers:0KiB muxing overhead: 0.068389%\nframe=  300 fps=7.3 q=51.0 Lsize=    4095KiB time=00:00:05.00 bitrate=6709.8kbits/s speed=0.122x elapsed=0:00:40.85    \n",
  "seconds": 41.056310176849365,
  "probe_out": {}
}